solid angle_of_repose_bench
   facet normal 0.000000e+00 -1.000000e+00 -0.000000e+00
      outer loop
         vertex 0.000000e+00 -2.900000e+01 7.500000e+01
         vertex -1.339177e+01 -2.900000e+01 7.379472e+01
         vertex 0.000000e+00 -2.900000e+01 0.000000e+00
      endloop
   endfacet
   facet normal 0.000000e+00 -1.000000e+00 0.000000e+00
      outer loop
         vertex 0.000000e+00 -2.900000e+01 7.500000e+01
         vertex 0.000000e+00 -2.900000e+01 0.000000e+00
         vertex 1.339177e+01 -2.900000e+01 7.379472e+01
      endloop
   endfacet
   facet normal -0.000000e+00 -1.000000e+00 0.000000e+00
      outer loop
         vertex 4.934540e+01 -2.900000e+01 5.648036e+01
         vertex 3.846744e+01 -2.900000e+01 6.438366e+01
         vertex 0.000000e+00 -2.900000e+01 0.000000e+00
      endloop
   endfacet
   facet normal 0.000000e+00 -1.000000e+00 0.000000e+00
      outer loop
         vertex 0.000000e+00 -2.900000e+01 0.000000e+00
         vertex 3.846744e+01 -2.900000e+01 6.438366e+01
         vertex 2.635311e+01 -2.900000e+01 7.021762e+01
      endloop
   endfacet
   facet normal 0.000000e+00 -1.000000e+00 0.000000e+00
      outer loop
         vertex 0.000000e+00 -2.900000e+01 0.000000e+00
         vertex 2.635311e+01 -2.900000e+01 7.021762e+01
         vertex 1.339177e+01 -2.900000e+01 7.379472e+01
      endloop
   endfacet
   facet normal -0.000000e+00 -1.000000e+00 0.000000e+00
      outer loop
         vertex 7.132924e+01 -2.900000e+01 2.317628e+01
         vertex 6.604467e+01 -2.900000e+01 3.554015e+01
         vertex 0.000000e+00 -2.900000e+01 0.000000e+00
      endloop
   endfacet
   facet normal 0.000000e+00 -1.000000e+00 0.000000e+00
      outer loop
         vertex 0.000000e+00 -2.900000e+01 0.000000e+00
         vertex 6.604467e+01 -2.900000e+01 3.554015e+01
         vertex 5.863736e+01 -2.900000e+01 4.676174e+01
      endloop
   endfacet
   facet normal 0.000000e+00 -1.000000e+00 0.000000e+00
      outer loop
         vertex 0.000000e+00 -2.900000e+01 0.000000e+00
         vertex 5.863736e+01 -2.900000e+01 4.676174e+01
         vertex 4.934540e+01 -2.900000e+01 5.648036e+01
      endloop
   endfacet
   facet normal 0.000000e+00 -1.000000e+00 0.000000e+00
      outer loop
         vertex 7.311960e+01 -2.900000e+01 -1.668907e+01
         vertex 7.492448e+01 -2.900000e+01 -3.364862e+00
         vertex 0.000000e+00 -2.900000e+01 0.000000e+00
      endloop
   endfacet
   facet normal 0.000000e+00 -1.000000e+00 0.000000e+00
      outer loop
         vertex 0.000000e+00 -2.900000e+01 0.000000e+00
         vertex 7.492448e+01 -2.900000e+01 -3.364862e+00
         vertex 7.432123e+01 -2.900000e+01 1.006749e+01
      endloop
   endfacet
   facet normal 0.000000e+00 -1.000000e+00 0.000000e+00
      outer loop
         vertex 0.000000e+00 -2.900000e+01 0.000000e+00
         vertex 7.432123e+01 -2.900000e+01 1.006749e+01
         vertex 7.132924e+01 -2.900000e+01 2.317628e+01
      endloop
   endfacet
   facet normal 0.000000e+00 -1.000000e+00 0.000000e+00
      outer loop
         vertex 5.420962e+01 -2.900000e+01 -5.182970e+01
         vertex 6.259299e+01 -2.900000e+01 -4.131727e+01
         vertex 0.000000e+00 -2.900000e+01 0.000000e+00
      endloop
   endfacet
   facet normal 0.000000e+00 -1.000000e+00 0.000000e+00
      outer loop
         vertex 0.000000e+00 -2.900000e+01 0.000000e+00
         vertex 6.259299e+01 -2.900000e+01 -4.131727e+01
         vertex 6.896459e+01 -2.900000e+01 -2.947688e+01
      endloop
   endfacet
   facet normal 0.000000e+00 -1.000000e+00 0.000000e+00
      outer loop
         vertex 0.000000e+00 -2.900000e+01 0.000000e+00
         vertex 6.896459e+01 -2.900000e+01 -2.947688e+01
         vertex 7.311960e+01 -2.900000e+01 -1.668907e+01
      endloop
   endfacet
   facet normal 0.000000e+00 -1.000000e+00 0.000000e+00
      outer loop
         vertex 1.995276e+01 -2.900000e+01 -7.229722e+01
         vertex 3.254128e+01 -2.900000e+01 -6.757267e+01
         vertex 0.000000e+00 -2.900000e+01 0.000000e+00
      endloop
   endfacet
   facet normal 0.000000e+00 -1.000000e+00 0.000000e+00
      outer loop
         vertex 0.000000e+00 -2.900000e+01 0.000000e+00
         vertex 3.254128e+01 -2.900000e+01 -6.757267e+01
         vertex 4.408389e+01 -2.900000e+01 -6.067627e+01
      endloop
   endfacet
   facet normal 0.000000e+00 -1.000000e+00 0.000000e+00
      outer loop
         vertex 0.000000e+00 -2.900000e+01 0.000000e+00
         vertex 4.408389e+01 -2.900000e+01 -6.067627e+01
         vertex 5.420962e+01 -2.900000e+01 -5.182970e+01
      endloop
   endfacet
   facet normal 0.000000e+00 -1.000000e+00 0.000000e+00
      outer loop
         vertex -1.995276e+01 -2.900000e+01 -7.229722e+01
         vertex -6.722948e+00 -2.900000e+01 -7.469808e+01
         vertex 0.000000e+00 -2.900000e+01 0.000000e+00
      endloop
   endfacet
   facet normal 0.000000e+00 -1.000000e+00 -0.000000e+00
      outer loop
         vertex 0.000000e+00 -2.900000e+01 0.000000e+00
         vertex -6.722948e+00 -2.900000e+01 -7.469808e+01
         vertex 6.722948e+00 -2.900000e+01 -7.469808e+01
      endloop
   endfacet
   facet normal 0.000000e+00 -1.000000e+00 0.000000e+00
      outer loop
         vertex 0.000000e+00 -2.900000e+01 0.000000e+00
         vertex 6.722948e+00 -2.900000e+01 -7.469808e+01
         vertex 1.995276e+01 -2.900000e+01 -7.229722e+01
      endloop
   endfacet
   facet normal 0.000000e+00 -1.000000e+00 0.000000e+00
      outer loop
         vertex -5.420962e+01 -2.900000e+01 -5.182970e+01
         vertex -4.408389e+01 -2.900000e+01 -6.067627e+01
         vertex 0.000000e+00 -2.900000e+01 0.000000e+00
      endloop
   endfacet
   facet normal 0.000000e+00 -1.000000e+00 0.000000e+00
      outer loop
         vertex 0.000000e+00 -2.900000e+01 0.000000e+00
         vertex -4.408389e+01 -2.900000e+01 -6.067627e+01
         vertex -3.254128e+01 -2.900000e+01 -6.757267e+01
      endloop
   endfacet
   facet normal 0.000000e+00 -1.000000e+00 0.000000e+00
      outer loop
         vertex 0.000000e+00 -2.900000e+01 0.000000e+00
         vertex -3.254128e+01 -2.900000e+01 -6.757267e+01
         vertex -1.995276e+01 -2.900000e+01 -7.229722e+01
      endloop
   endfacet
   facet normal 0.000000e+00 -1.000000e+00 0.000000e+00
      outer loop
         vertex -7.311960e+01 -2.900000e+01 -1.668907e+01
         vertex -6.896459e+01 -2.900000e+01 -2.947688e+01
         vertex 0.000000e+00 -2.900000e+01 0.000000e+00
      endloop
   endfacet
   facet normal 0.000000e+00 -1.000000e+00 0.000000e+00
      outer loop
         vertex 0.000000e+00 -2.900000e+01 0.000000e+00
         vertex -6.896459e+01 -2.900000e+01 -2.947688e+01
         vertex -6.259299e+01 -2.900000e+01 -4.131727e+01
      endloop
   endfacet
   facet normal 0.000000e+00 -1.000000e+00 0.000000e+00
      outer loop
         vertex 0.000000e+00 -2.900000e+01 0.000000e+00
         vertex -6.259299e+01 -2.900000e+01 -4.131727e+01
         vertex -5.420962e+01 -2.900000e+01 -5.182970e+01
      endloop
   endfacet
   facet normal 0.000000e+00 -1.000000e+00 -0.000000e+00
      outer loop
         vertex -7.132924e+01 -2.900000e+01 2.317628e+01
         vertex -7.432123e+01 -2.900000e+01 1.006749e+01
         vertex 0.000000e+00 -2.900000e+01 0.000000e+00
      endloop
   endfacet
   facet normal -0.000000e+00 -1.000000e+00 0.000000e+00
      outer loop
         vertex 0.000000e+00 -2.900000e+01 0.000000e+00
         vertex -7.432123e+01 -2.900000e+01 1.006749e+01
         vertex -7.492448e+01 -2.900000e+01 -3.364862e+00
      endloop
   endfacet
   facet normal 0.000000e+00 -1.000000e+00 0.000000e+00
      outer loop
         vertex 0.000000e+00 -2.900000e+01 0.000000e+00
         vertex -7.492448e+01 -2.900000e+01 -3.364862e+00
         vertex -7.311960e+01 -2.900000e+01 -1.668907e+01
      endloop
   endfacet
   facet normal 0.000000e+00 -1.000000e+00 -0.000000e+00
      outer loop
         vertex -4.934540e+01 -2.900000e+01 5.648036e+01
         vertex -5.863736e+01 -2.900000e+01 4.676174e+01
         vertex 0.000000e+00 -2.900000e+01 0.000000e+00
      endloop
   endfacet
   facet normal 0.000000e+00 -1.000000e+00 0.000000e+00
      outer loop
         vertex 0.000000e+00 -2.900000e+01 0.000000e+00
         vertex -5.863736e+01 -2.900000e+01 4.676174e+01
         vertex -6.604467e+01 -2.900000e+01 3.554015e+01
      endloop
   endfacet
   facet normal 0.000000e+00 -1.000000e+00 0.000000e+00
      outer loop
         vertex 0.000000e+00 -2.900000e+01 0.000000e+00
         vertex -6.604467e+01 -2.900000e+01 3.554015e+01
         vertex -7.132924e+01 -2.900000e+01 2.317628e+01
      endloop
   endfacet
   facet normal 0.000000e+00 -1.000000e+00 -0.000000e+00
      outer loop
         vertex -1.339177e+01 -2.900000e+01 7.379472e+01
         vertex -2.635311e+01 -2.900000e+01 7.021762e+01
         vertex 0.000000e+00 -2.900000e+01 0.000000e+00
      endloop
   endfacet
   facet normal 0.000000e+00 -1.000000e+00 0.000000e+00
      outer loop
         vertex 0.000000e+00 -2.900000e+01 0.000000e+00
         vertex -2.635311e+01 -2.900000e+01 7.021762e+01
         vertex -3.846744e+01 -2.900000e+01 6.438366e+01
      endloop
   endfacet
   facet normal 0.000000e+00 -1.000000e+00 0.000000e+00
      outer loop
         vertex 0.000000e+00 -2.900000e+01 0.000000e+00
         vertex -3.846744e+01 -2.900000e+01 6.438366e+01
         vertex -4.934540e+01 -2.900000e+01 5.648036e+01
      endloop
   endfacet
endsolid